<svg xmlns="http://www.w3.org/2000/svg" xmlns:xlink="http://www.w3.org/1999/xlink" width="500" zoomAndPan="magnify" viewBox="0 0 375 374.999991" height="500" preserveAspectRatio="xMidYMid meet" version="1.0"><defs><clipPath id="d39bde1390"><path d="M 0 0 L 375 0 L 375 268.878906 L 0 268.878906 Z M 0 0 " clip-rule="nonzero"/></clipPath><clipPath id="c92c76fce0"><path d="M 17.25 0 L 357.75 0 C 362.324219 0 366.710938 1.816406 369.949219 5.050781 C 373.183594 8.289062 375 12.675781 375 17.25 L 375 251.628906 C 375 256.207031 373.183594 260.59375 369.949219 263.828125 C 366.710938 267.0625 362.324219 268.878906 357.75 268.878906 L 17.25 268.878906 C 12.675781 268.878906 8.289062 267.0625 5.050781 263.828125 C 1.816406 260.59375 0 256.207031 0 251.628906 L 0 17.25 C 0 7.722656 7.722656 0 17.25 0 Z M 17.25 0 " clip-rule="nonzero"/></clipPath><clipPath id="20e16a45b5"><path d="M 0.00390625 0 L 374.996094 0 L 374.996094 269 L 0.00390625 269 Z M 0.00390625 0 " clip-rule="nonzero"/></clipPath><clipPath id="2eb18bec14"><path d="M 17.253906 0 L 357.746094 0 C 362.320312 0 366.707031 1.816406 369.945312 5.050781 C 373.179688 8.289062 374.996094 12.675781 374.996094 17.25 L 374.996094 251.625 C 374.996094 256.199219 373.179688 260.585938 369.945312 263.824219 C 366.707031 267.058594 362.320312 268.875 357.746094 268.875 L 17.253906 268.875 C 12.679688 268.875 8.292969 267.058594 5.054688 263.824219 C 1.820312 260.585938 0.00390625 256.199219 0.00390625 251.625 L 0.00390625 17.25 C 0.00390625 7.722656 7.726562 0 17.253906 0 Z M 17.253906 0 " clip-rule="nonzero"/></clipPath><clipPath id="7eefb2afd5"><path d="M 4.265625 49.128906 L 369.617188 49.128906 L 369.617188 91.136719 L 4.265625 91.136719 Z M 4.265625 49.128906 " clip-rule="nonzero"/></clipPath><clipPath id="9363c92d4a"><path d="M 4.265625 91.136719 L 369.617188 91.136719 L 369.617188 133.140625 L 4.265625 133.140625 Z M 4.265625 91.136719 " clip-rule="nonzero"/></clipPath><clipPath id="46c0673c8e"><path d="M 4.824219 132.390625 L 370.175781 132.390625 L 370.175781 174.398438 L 4.824219 174.398438 Z M 4.824219 132.390625 " clip-rule="nonzero"/></clipPath><clipPath id="fb74d9f4f9"><path d="M 4.265625 173.648438 L 369.617188 173.648438 L 369.617188 215.652344 L 4.265625 215.652344 Z M 4.265625 173.648438 " clip-rule="nonzero"/></clipPath></defs><g clip-path="url(#d39bde1390)"><g clip-path="url(#c92c76fce0)"><path fill="#f3dcb9" d="M 0 0 L 374.960938 0 L 374.960938 268.878906 L 0 268.878906 Z M 0 0 " fill-opacity="1" fill-rule="nonzero"/></g></g><g clip-path="url(#20e16a45b5)"><g clip-path="url(#2eb18bec14)"><path stroke-linecap="butt" transform="matrix(0.75, 0, 0, 0.75, 0.00402785, 0)" fill="none" stroke-linejoin="miter" d="M 22.999839 0 L 476.989453 0 C 483.088411 0 488.93737 2.421875 493.255079 6.734375 C 497.567579 11.052084 499.989454 16.901043 499.989454 23.000002 L 499.989454 335.500022 C 499.989454 341.598981 497.567579 347.447939 493.255079 351.765648 C 488.93737 356.078148 483.088411 358.500024 476.989453 358.500024 L 22.999839 358.500024 C 16.900881 358.500024 11.051922 356.078148 6.734213 351.765648 C 2.421713 347.447939 -0.000162136 341.598981 -0.000162136 335.500022 L -0.000162136 23.000002 C -0.000162136 10.296876 10.296714 0 22.999839 0 Z M 22.999839 0 " stroke="#1e2e3c" stroke-width="14" stroke-opacity="1" stroke-miterlimit="4"/></g></g><g clip-path="url(#7eefb2afd5)"><path fill="#e41e21" d="M 4.265625 49.128906 L 369.683594 49.128906 L 369.683594 91.136719 L 4.265625 91.136719 Z M 4.265625 49.128906 " fill-opacity="1" fill-rule="nonzero"/></g><g clip-path="url(#9363c92d4a)"><path fill="#f09c1c" d="M 4.265625 91.136719 L 369.683594 91.136719 L 369.683594 133.140625 L 4.265625 133.140625 Z M 4.265625 91.136719 " fill-opacity="1" fill-rule="nonzero"/></g><g clip-path="url(#46c0673c8e)"><path fill="#0c85ec" d="M 4.824219 132.390625 L 370.242188 132.390625 L 370.242188 174.398438 L 4.824219 174.398438 Z M 4.824219 132.390625 " fill-opacity="1" fill-rule="nonzero"/></g><g clip-path="url(#fb74d9f4f9)"><path fill="#3eb081" d="M 4.265625 173.648438 L 369.683594 173.648438 L 369.683594 215.652344 L 4.265625 215.652344 Z M 4.265625 173.648438 " fill-opacity="1" fill-rule="nonzero"/></g></svg>