<svg xmlns="http://www.w3.org/2000/svg" xmlns:xlink="http://www.w3.org/1999/xlink" width="500" zoomAndPan="magnify" viewBox="0 0 375 374.999991" height="500" preserveAspectRatio="xMidYMid meet" version="1.0"><defs><g/><clipPath id="82e6e181ef"><path d="M 106.195312 106.195312 L 268.972656 106.195312 L 268.972656 264.640625 L 106.195312 264.640625 Z M 106.195312 106.195312 " clip-rule="nonzero"/></clipPath><clipPath id="800d36804d"><path d="M 123.445312 106.195312 L 251.554688 106.195312 C 261.082031 106.195312 268.804688 113.917969 268.804688 123.445312 L 268.804688 247.390625 C 268.804688 256.917969 261.082031 264.640625 251.554688 264.640625 L 123.445312 264.640625 C 113.917969 264.640625 106.195312 256.917969 106.195312 247.390625 L 106.195312 123.445312 C 106.195312 113.917969 113.917969 106.195312 123.445312 106.195312 Z M 123.445312 106.195312 " clip-rule="nonzero"/></clipPath><clipPath id="9456be8395"><path d="M 106.195312 106.199219 L 268.792969 106.199219 L 268.792969 264.445312 L 106.195312 264.445312 Z M 106.195312 106.199219 " clip-rule="nonzero"/></clipPath><clipPath id="985a2ddff1"><path d="M 123.445312 106.199219 L 251.542969 106.199219 C 261.070312 106.199219 268.792969 113.921875 268.792969 123.445312 L 268.792969 247.382812 C 268.792969 256.910156 261.070312 264.632812 251.542969 264.632812 L 123.445312 264.632812 C 113.917969 264.632812 106.195312 256.910156 106.195312 247.382812 L 106.195312 123.445312 C 106.195312 113.921875 113.917969 106.199219 123.445312 106.199219 Z M 123.445312 106.199219 " clip-rule="nonzero"/></clipPath><clipPath id="ad224f6545"><path d="M 111.675781 127.5 L 263.324219 127.5 L 263.324219 145.714844 L 111.675781 145.714844 Z M 111.675781 127.5 " clip-rule="nonzero"/></clipPath><clipPath id="7aec79dd50"><path d="M 111.675781 145.714844 L 263.324219 145.714844 L 263.324219 163.929688 L 111.675781 163.929688 Z M 111.675781 145.714844 " clip-rule="nonzero"/></clipPath><clipPath id="ceb3abb801"><path d="M 111.675781 163.929688 L 263.324219 163.929688 L 263.324219 182.144531 L 111.675781 182.144531 Z M 111.675781 163.929688 " clip-rule="nonzero"/></clipPath><clipPath id="64cf131e64"><path d="M 111.675781 182.144531 L 263.324219 182.144531 L 263.324219 200.359375 L 111.675781 200.359375 Z M 111.675781 182.144531 " clip-rule="nonzero"/></clipPath></defs><g clip-path="url(#82e6e181ef)"><g clip-path="url(#800d36804d)"><path fill="#f3dcb9" d="M 106.195312 106.195312 L 268.972656 106.195312 L 268.972656 264.640625 L 106.195312 264.640625 Z M 106.195312 106.195312 " fill-opacity="1" fill-rule="nonzero"/></g></g><g clip-path="url(#9456be8395)"><g clip-path="url(#985a2ddff1)"><path stroke-linecap="butt" transform="matrix(0.75, 0, 0, 0.75, 106.196124, 106.197312)" fill="none" stroke-linejoin="miter" d="M 22.99892 0.00254203 L 193.795806 0.00254203 C 206.498932 0.00254203 216.795807 10.294209 216.795807 22.997335 L 216.795807 188.247346 C 216.795807 200.950472 206.498932 211.247348 193.795806 211.247348 L 22.99892 211.247348 C 10.295794 211.247348 -0.0010819 200.950472 -0.0010819 188.247346 L -0.0010819 22.997335 C -0.0010819 10.294209 10.295794 0.00254203 22.99892 0.00254203 Z M 22.99892 0.00254203 " stroke="#1e2e3c" stroke-width="14" stroke-opacity="1" stroke-miterlimit="4"/></g></g><g clip-path="url(#ad224f6545)"><path fill="#e41e21" d="M 111.675781 127.5 L 263.296875 127.5 L 263.296875 145.714844 L 111.675781 145.714844 Z M 111.675781 127.5 " fill-opacity="1" fill-rule="nonzero"/></g><g clip-path="url(#7aec79dd50)"><path fill="#f09c1c" d="M 111.675781 145.714844 L 263.296875 145.714844 L 263.296875 163.929688 L 111.675781 163.929688 Z M 111.675781 145.714844 " fill-opacity="1" fill-rule="nonzero"/></g><g clip-path="url(#ceb3abb801)"><path fill="#0c85ec" d="M 111.675781 163.929688 L 263.296875 163.929688 L 263.296875 182.144531 L 111.675781 182.144531 Z M 111.675781 163.929688 " fill-opacity="1" fill-rule="nonzero"/></g><g clip-path="url(#64cf131e64)"><path fill="#3eb081" d="M 111.675781 182.144531 L 263.296875 182.144531 L 263.296875 200.359375 L 111.675781 200.359375 Z M 111.675781 182.144531 " fill-opacity="1" fill-rule="nonzero"/></g><g fill="#1e2e3c" fill-opacity="1"><g transform="translate(117.245826, 251.451699)"><g><path d="M 1.359375 -16.953125 C 1.359375 -22.648438 2.753906 -26.878906 5.546875 -29.640625 C 7.347656 -31.441406 9.359375 -32.632812 11.578125 -33.21875 C 13.804688 -33.800781 16.722656 -34.09375 20.328125 -34.09375 C 23.671875 -34.09375 26.363281 -33.859375 28.40625 -33.390625 C 30.457031 -32.921875 32.140625 -31.929688 33.453125 -30.421875 C 34.546875 -29.160156 35.40625 -27.632812 36.03125 -25.84375 C 36.664062 -24.0625 37.03125 -22.316406 37.125 -20.609375 L 34.375 -20.609375 C 34.25 -22.054688 33.90625 -23.546875 33.34375 -25.078125 C 32.78125 -26.609375 31.898438 -27.925781 30.703125 -29.03125 C 29.515625 -30.144531 28.003906 -30.703125 26.171875 -30.703125 C 24.460938 -30.703125 23.046875 -29.945312 21.921875 -28.4375 C 20.953125 -27.113281 20.257812 -25.359375 19.84375 -23.171875 C 19.457031 -21.242188 19.265625 -19.171875 19.265625 -16.953125 C 19.265625 -13.304688 19.710938 -10.265625 20.609375 -7.828125 C 21.804688 -4.703125 23.660156 -3.140625 26.171875 -3.140625 L 26.171875 -16.515625 L 40.9375 -16.515625 L 40.9375 0 C 36.300781 0 31.054688 0.0625 25.203125 0.1875 L 20.328125 0.234375 C 16.785156 0.234375 13.910156 -0.109375 11.703125 -0.796875 C 9.503906 -1.484375 7.613281 -2.617188 6.03125 -4.203125 C 2.914062 -7.328125 1.359375 -11.578125 1.359375 -16.953125 Z M 1.359375 -16.953125 "/></g></g></g><g fill="#1e2e3c" fill-opacity="1"><g transform="translate(159.543523, 251.451699)"><g><path d="M 1.359375 -9.359375 L 10.90625 -9.359375 L 10.90625 0 L 1.359375 0 Z M 1.359375 -9.359375 "/></g></g></g><g fill="#1e2e3c" fill-opacity="1"><g transform="translate(171.856207, 251.451699)"><g><path d="M 17.578125 0.234375 C 11.742188 0.234375 7.582031 -0.613281 5.09375 -2.3125 C 2.601562 -4.019531 1.359375 -6.628906 1.359375 -10.140625 L 1.359375 -33.796875 L 19.796875 -33.796875 L 19.796875 -10.140625 C 19.796875 -7.859375 20.300781 -6.191406 21.3125 -5.140625 C 22.332031 -4.097656 23.675781 -3.578125 25.34375 -3.578125 C 29.082031 -3.578125 30.953125 -5.765625 30.953125 -10.140625 L 30.953125 -33.796875 L 33.796875 -33.796875 L 33.796875 -10.140625 C 33.796875 -7.398438 33.21875 -5.28125 32.0625 -3.78125 C 30.90625 -2.289062 29.164062 -1.25 26.84375 -0.65625 C 24.53125 -0.0625 21.441406 0.234375 17.578125 0.234375 Z M 17.578125 0.234375 "/></g></g></g><g fill="#1e2e3c" fill-opacity="1"><g transform="translate(207.00772, 251.451699)"><g><path d="M 1.359375 -9.359375 L 10.90625 -9.359375 L 10.90625 0 L 1.359375 0 Z M 1.359375 -9.359375 "/></g></g></g><g fill="#1e2e3c" fill-opacity="1"><g transform="translate(219.320403, 251.451699)"><g><path d="M 11.484375 -15.5 L 1.015625 -33.796875 L 19.9375 -33.796875 L 26.890625 -19.984375 L 33.65625 -33.796875 L 37.375 -33.796875 L 28.390625 -15.5 L 28.390625 0 L 11.484375 0 Z M 11.484375 -15.5 "/></g></g></g></svg>