<svg xmlns="http://www.w3.org/2000/svg" xmlns:xlink="http://www.w3.org/1999/xlink" width="500" zoomAndPan="magnify" viewBox="0 0 375 374.999991" height="500" preserveAspectRatio="xMidYMid meet" version="1.0"><defs><g/><clipPath id="e079864288"><path d="M 25.632812 22.59375 L 349 22.59375 L 349 337.5 L 25.632812 337.5 Z M 25.632812 22.59375 " clip-rule="nonzero"/></clipPath><clipPath id="a267279734"><path d="M 42.882812 22.59375 L 331.558594 22.59375 C 341.085938 22.59375 348.808594 30.320312 348.808594 39.84375 L 348.808594 320.25 C 348.808594 329.777344 341.085938 337.5 331.558594 337.5 L 42.882812 337.5 C 33.355469 337.5 25.632812 329.777344 25.632812 320.25 L 25.632812 39.84375 C 25.632812 30.320312 33.355469 22.59375 42.882812 22.59375 Z M 42.882812 22.59375 " clip-rule="nonzero"/></clipPath><clipPath id="88a271a72b"><path d="M 25.632812 22.59375 L 348.800781 22.59375 L 348.800781 337.59375 L 25.632812 337.59375 Z M 25.632812 22.59375 " clip-rule="nonzero"/></clipPath><clipPath id="50110e4bb5"><path d="M 42.882812 22.59375 L 331.550781 22.59375 C 341.078125 22.59375 348.800781 30.320312 348.800781 39.84375 L 348.800781 320.242188 C 348.800781 329.765625 341.078125 337.488281 331.550781 337.488281 L 42.882812 337.488281 C 33.355469 337.488281 25.632812 329.765625 25.632812 320.242188 L 25.632812 39.84375 C 25.632812 30.320312 33.355469 22.59375 42.882812 22.59375 Z M 42.882812 22.59375 " clip-rule="nonzero"/></clipPath><clipPath id="b928e84014"><path d="M 30.273438 64.9375 L 343.648438 64.9375 L 343.648438 101.136719 L 30.273438 101.136719 Z M 30.273438 64.9375 " clip-rule="nonzero"/></clipPath><clipPath id="b00c3739fc"><path d="M 30.273438 101.136719 L 343.648438 101.136719 L 343.648438 137.339844 L 30.273438 137.339844 Z M 30.273438 101.136719 " clip-rule="nonzero"/></clipPath><clipPath id="224f5a8427"><path d="M 30.273438 137.339844 L 343.648438 137.339844 L 343.648438 173.539062 L 30.273438 173.539062 Z M 30.273438 137.339844 " clip-rule="nonzero"/></clipPath><clipPath id="11d26a56ed"><path d="M 30.273438 173.539062 L 343.648438 173.539062 L 343.648438 209.738281 L 30.273438 209.738281 Z M 30.273438 173.539062 " clip-rule="nonzero"/></clipPath></defs><g clip-path="url(#e079864288)"><g clip-path="url(#a267279734)"><path fill="#f3dcb9" d="M 25.632812 22.59375 L 349.148438 22.59375 L 349.148438 337.5 L 25.632812 337.5 Z M 25.632812 22.59375 " fill-opacity="1" fill-rule="nonzero"/></g></g><g clip-path="url(#88a271a72b)"><g clip-path="url(#50110e4bb5)"><path stroke-linecap="butt" transform="matrix(0.75, 0, 0, 0.75, 25.632203, 22.595649)" fill="none" stroke-linejoin="miter" d="M 23.000815 -0.0025321 L 407.89149 -0.0025321 C 420.594617 -0.0025321 430.891493 10.299553 430.891493 22.997471 L 430.891493 396.862103 C 430.891493 409.560021 420.594617 419.856897 407.89149 419.856897 L 23.000815 419.856897 C 10.297689 419.856897 0.000812378 409.560021 0.000812378 396.862103 L 0.000812378 22.997471 C 0.000812378 10.299553 10.297689 -0.0025321 23.000815 -0.0025321 Z M 23.000815 -0.0025321 " stroke="#1e2e3c" stroke-width="14" stroke-opacity="1" stroke-miterlimit="4"/></g></g><g clip-path="url(#b928e84014)"><path fill="#e41e21" d="M 30.273438 64.9375 L 343.636719 64.9375 L 343.636719 101.136719 L 30.273438 101.136719 Z M 30.273438 64.9375 " fill-opacity="1" fill-rule="nonzero"/></g><g clip-path="url(#b00c3739fc)"><path fill="#f09c1c" d="M 30.273438 101.136719 L 343.636719 101.136719 L 343.636719 137.339844 L 30.273438 137.339844 Z M 30.273438 101.136719 " fill-opacity="1" fill-rule="nonzero"/></g><g clip-path="url(#224f5a8427)"><path fill="#0c85ec" d="M 30.273438 137.339844 L 343.636719 137.339844 L 343.636719 173.539062 L 30.273438 173.539062 Z M 30.273438 137.339844 " fill-opacity="1" fill-rule="nonzero"/></g><g clip-path="url(#11d26a56ed)"><path fill="#3eb081" d="M 30.273438 173.539062 L 343.636719 173.539062 L 343.636719 209.738281 L 30.273438 209.738281 Z M 30.273438 173.539062 " fill-opacity="1" fill-rule="nonzero"/></g><g fill="#1e2e3c" fill-opacity="1"><g transform="translate(47.593024, 311.286536)"><g><path d="M 2.6875 -33.6875 C 2.6875 -45.007812 5.46875 -53.421875 11.03125 -58.921875 C 14.613281 -62.503906 18.613281 -64.867188 23.03125 -66.015625 C 27.445312 -67.171875 33.238281 -67.75 40.40625 -67.75 C 47.0625 -67.75 52.421875 -67.285156 56.484375 -66.359375 C 60.546875 -65.429688 63.882812 -63.460938 66.5 -60.453125 C 68.675781 -57.960938 70.390625 -54.941406 71.640625 -51.390625 C 72.890625 -47.835938 73.609375 -44.367188 73.796875 -40.984375 L 68.328125 -40.984375 C 68.078125 -43.859375 67.390625 -46.816406 66.265625 -49.859375 C 65.148438 -52.898438 63.40625 -55.519531 61.03125 -57.71875 C 58.664062 -59.925781 55.660156 -61.03125 52.015625 -61.03125 C 48.617188 -61.03125 45.800781 -59.53125 43.5625 -56.53125 C 41.644531 -53.90625 40.269531 -50.414062 39.4375 -46.0625 C 38.675781 -42.226562 38.296875 -38.101562 38.296875 -33.6875 C 38.296875 -26.457031 39.191406 -20.410156 40.984375 -15.546875 C 43.347656 -9.335938 47.023438 -6.234375 52.015625 -6.234375 L 52.015625 -32.828125 L 81.375 -32.828125 L 81.375 0 C 72.164062 0 61.738281 0.128906 50.09375 0.390625 L 40.40625 0.484375 C 33.363281 0.484375 27.648438 -0.203125 23.265625 -1.578125 C 18.890625 -2.953125 15.132812 -5.207031 12 -8.34375 C 5.789062 -14.550781 2.6875 -23 2.6875 -33.6875 Z M 2.6875 -33.6875 "/></g></g></g><g fill="#1e2e3c" fill-opacity="1"><g transform="translate(131.658373, 311.286536)"><g><path d="M 2.6875 -18.625 L 21.6875 -18.625 L 21.6875 0 L 2.6875 0 Z M 2.6875 -18.625 "/></g></g></g><g fill="#1e2e3c" fill-opacity="1"><g transform="translate(156.129447, 311.286536)"><g><path d="M 34.9375 0.484375 C 23.351562 0.484375 15.082031 -1.207031 10.125 -4.59375 C 5.164062 -7.988281 2.6875 -13.175781 2.6875 -20.15625 L 2.6875 -67.171875 L 39.34375 -67.171875 L 39.34375 -20.15625 C 39.34375 -15.613281 40.347656 -12.300781 42.359375 -10.21875 C 44.378906 -8.144531 47.054688 -7.109375 50.390625 -7.109375 C 57.804688 -7.109375 61.515625 -11.457031 61.515625 -20.15625 L 61.515625 -67.171875 L 67.171875 -67.171875 L 67.171875 -20.15625 C 67.171875 -14.71875 66.019531 -10.507812 63.71875 -7.53125 C 61.414062 -4.5625 57.960938 -2.484375 53.359375 -1.296875 C 48.753906 -0.109375 42.613281 0.484375 34.9375 0.484375 Z M 34.9375 0.484375 "/></g></g></g><g fill="#1e2e3c" fill-opacity="1"><g transform="translate(225.991977, 311.286536)"><g><path d="M 2.6875 -18.625 L 21.6875 -18.625 L 21.6875 0 L 2.6875 0 Z M 2.6875 -18.625 "/></g></g></g><g fill="#1e2e3c" fill-opacity="1"><g transform="translate(250.463051, 311.286536)"><g><path d="M 22.84375 -30.8125 L 2.015625 -67.171875 L 39.640625 -67.171875 L 53.453125 -39.734375 L 66.890625 -67.171875 L 74.28125 -67.171875 L 56.421875 -30.8125 L 56.421875 0 L 22.84375 0 Z M 22.84375 -30.8125 "/></g></g></g><g fill="#e15c31" fill-opacity="1"><g transform="translate(98.878853, 361.42676)"><g><path d="M 6.828125 0.25 C 5.648438 0.25 4.625 -0.0351562 3.75 -0.609375 C 2.875 -1.179688 2.191406 -2.039062 1.703125 -3.1875 C 1.222656 -4.34375 0.984375 -5.785156 0.984375 -7.515625 C 0.984375 -8.804688 1.15625 -9.929688 1.5 -10.890625 C 1.851562 -11.859375 2.320312 -12.664062 2.90625 -13.3125 C 3.5 -13.957031 4.171875 -14.441406 4.921875 -14.765625 C 5.679688 -15.085938 6.460938 -15.25 7.265625 -15.25 C 8.242188 -15.25 9.054688 -15.109375 9.703125 -14.828125 C 10.359375 -14.546875 10.976562 -14.132812 11.5625 -13.59375 L 10.421875 -12.40625 C 9.960938 -12.84375 9.476562 -13.160156 8.96875 -13.359375 C 8.46875 -13.566406 7.90625 -13.671875 7.28125 -13.671875 C 6.738281 -13.671875 6.210938 -13.5625 5.703125 -13.34375 C 5.191406 -13.132812 4.734375 -12.789062 4.328125 -12.3125 C 3.929688 -11.84375 3.613281 -11.210938 3.375 -10.421875 C 3.132812 -9.640625 3.015625 -8.671875 3.015625 -7.515625 C 3.015625 -6.066406 3.164062 -4.882812 3.46875 -3.96875 C 3.769531 -3.0625 4.21875 -2.394531 4.8125 -1.96875 C 5.40625 -1.550781 6.132812 -1.34375 7 -1.34375 C 7.53125 -1.34375 8.03125 -1.40625 8.5 -1.53125 C 8.96875 -1.65625 9.421875 -1.832031 9.859375 -2.0625 L 9.859375 -6.640625 L 6.90625 -6.640625 L 6.6875 -8.203125 L 11.734375 -8.203125 L 11.734375 -1.0625 C 11.054688 -0.695312 10.335938 -0.382812 9.578125 -0.125 C 8.816406 0.125 7.898438 0.25 6.828125 0.25 Z M 6.828125 0.25 "/></g></g></g><g fill="#e15c31" fill-opacity="1"><g transform="translate(110.565014, 361.42676)"><g><path d="M 9.453125 -3.828125 L 3.515625 -3.828125 L 2.3125 0 L 0.453125 0 L 5.328125 -15 L 7.75 -15 L 12.625 0 L 10.640625 0 Z M 4 -5.390625 L 8.953125 -5.390625 L 6.5 -13.421875 Z M 4 -5.390625 "/></g></g></g><g fill="#e15c31" fill-opacity="1"><g transform="translate(122.251174, 361.42676)"><g><path d="M 11.5625 -15 L 12.40625 0 L 10.59375 0 L 10.125 -7.828125 C 10.101562 -8.359375 10.082031 -8.894531 10.0625 -9.4375 C 10.039062 -9.988281 10.023438 -10.515625 10.015625 -11.015625 C 10.003906 -11.515625 10 -11.960938 10 -12.359375 C 10 -12.753906 10 -13.0625 10 -13.28125 L 7.46875 -2.6875 L 5.578125 -2.6875 L 2.859375 -13.28125 C 2.867188 -13.0625 2.878906 -12.75 2.890625 -12.34375 C 2.898438 -11.9375 2.90625 -11.472656 2.90625 -10.953125 C 2.90625 -10.429688 2.898438 -9.898438 2.890625 -9.359375 C 2.878906 -8.828125 2.863281 -8.328125 2.84375 -7.859375 L 2.4375 0 L 0.671875 0 L 1.515625 -15 L 4.15625 -15 L 6.578125 -4.734375 L 8.90625 -15 Z M 11.5625 -15 "/></g></g></g><g fill="#e15c31" fill-opacity="1"><g transform="translate(133.937335, 361.42676)"><g><path d="M 4.625 -13.453125 L 4.625 -8.40625 L 10.1875 -8.40625 L 10.1875 -6.84375 L 4.625 -6.84375 L 4.625 -1.515625 L 11.453125 -1.515625 L 11.453125 0 L 2.734375 0 L 2.734375 -15 L 11.265625 -15 L 11.046875 -13.453125 Z M 4.625 -13.453125 "/></g></g></g><g fill="#e15c31" fill-opacity="1"><g transform="translate(145.623496, 361.42676)"><g><path d="M 11.6875 -4.15625 C 11.6875 -3.289062 11.472656 -2.523438 11.046875 -1.859375 C 10.617188 -1.203125 10 -0.6875 9.1875 -0.3125 C 8.375 0.0625 7.382812 0.25 6.21875 0.25 C 5.113281 0.25 4.113281 0.0820312 3.21875 -0.25 C 2.332031 -0.582031 1.578125 -1.054688 0.953125 -1.671875 L 2.078125 -2.9375 C 2.597656 -2.445312 3.191406 -2.054688 3.859375 -1.765625 C 4.535156 -1.484375 5.332031 -1.34375 6.25 -1.34375 C 6.851562 -1.34375 7.421875 -1.441406 7.953125 -1.640625 C 8.484375 -1.835938 8.910156 -2.140625 9.234375 -2.546875 C 9.566406 -2.960938 9.734375 -3.488281 9.734375 -4.125 C 9.734375 -4.601562 9.640625 -5.015625 9.453125 -5.359375 C 9.265625 -5.703125 8.929688 -6.003906 8.453125 -6.265625 C 7.972656 -6.535156 7.300781 -6.796875 6.4375 -7.046875 C 5.445312 -7.335938 4.59375 -7.664062 3.875 -8.03125 C 3.15625 -8.40625 2.597656 -8.859375 2.203125 -9.390625 C 1.804688 -9.929688 1.609375 -10.597656 1.609375 -11.390625 C 1.609375 -12.140625 1.8125 -12.800781 2.21875 -13.375 C 2.632812 -13.957031 3.207031 -14.414062 3.9375 -14.75 C 4.664062 -15.082031 5.507812 -15.25 6.46875 -15.25 C 7.5 -15.25 8.398438 -15.097656 9.171875 -14.796875 C 9.941406 -14.503906 10.640625 -14.082031 11.265625 -13.53125 L 10.140625 -12.296875 C 9.609375 -12.785156 9.03125 -13.132812 8.40625 -13.34375 C 7.789062 -13.5625 7.164062 -13.671875 6.53125 -13.671875 C 5.976562 -13.671875 5.472656 -13.585938 5.015625 -13.421875 C 4.566406 -13.253906 4.207031 -13.007812 3.9375 -12.6875 C 3.664062 -12.363281 3.53125 -11.953125 3.53125 -11.453125 C 3.53125 -11.023438 3.644531 -10.65625 3.875 -10.34375 C 4.113281 -10.03125 4.507812 -9.742188 5.0625 -9.484375 C 5.613281 -9.222656 6.363281 -8.953125 7.3125 -8.671875 C 8.09375 -8.453125 8.8125 -8.171875 9.46875 -7.828125 C 10.132812 -7.492188 10.671875 -7.035156 11.078125 -6.453125 C 11.484375 -5.878906 11.6875 -5.113281 11.6875 -4.15625 Z M 11.6875 -4.15625 "/></g></g></g><g fill="#e15c31" fill-opacity="1"><g transform="translate(157.309657, 361.42676)"><g/></g></g><g fill="#e15c31" fill-opacity="1"><g transform="translate(168.995817, 361.42676)"><g><path d="M 11.5 -15 L 11.5 -4.859375 C 11.5 -3.847656 11.289062 -2.957031 10.875 -2.1875 C 10.46875 -1.414062 9.890625 -0.816406 9.140625 -0.390625 C 8.398438 0.0351562 7.523438 0.25 6.515625 0.25 C 5.484375 0.25 4.597656 0.0351562 3.859375 -0.390625 C 3.117188 -0.828125 2.550781 -1.429688 2.15625 -2.203125 C 1.769531 -2.972656 1.578125 -3.859375 1.578125 -4.859375 L 1.578125 -15 L 3.453125 -15 L 3.453125 -4.796875 C 3.453125 -3.648438 3.71875 -2.796875 4.25 -2.234375 C 4.789062 -1.671875 5.546875 -1.390625 6.515625 -1.390625 C 7.492188 -1.390625 8.25 -1.671875 8.78125 -2.234375 C 9.320312 -2.796875 9.59375 -3.648438 9.59375 -4.796875 L 9.59375 -15 Z M 11.5 -15 "/></g></g></g><g fill="#e15c31" fill-opacity="1"><g transform="translate(180.681978, 361.42676)"><g><path d="M 8.609375 0 L 3.328125 -13.203125 C 3.328125 -13.035156 3.335938 -12.753906 3.359375 -12.359375 C 3.390625 -11.972656 3.421875 -11.507812 3.453125 -10.96875 C 3.492188 -10.4375 3.523438 -9.875 3.546875 -9.28125 C 3.566406 -8.6875 3.578125 -8.097656 3.578125 -7.515625 L 3.578125 0 L 1.8125 0 L 1.8125 -15 L 4.375 -15 L 9.75 -1.75 C 9.75 -1.96875 9.722656 -2.359375 9.671875 -2.921875 C 9.628906 -3.484375 9.585938 -4.160156 9.546875 -4.953125 C 9.515625 -5.753906 9.5 -6.601562 9.5 -7.5 L 9.5 -15 L 11.265625 -15 L 11.265625 0 Z M 8.609375 0 "/></g></g></g><g fill="#e15c31" fill-opacity="1"><g transform="translate(192.368139, 361.42676)"><g><path d="M 10.03125 -7.578125 C 10.03125 -8.878906 9.890625 -9.921875 9.609375 -10.703125 C 9.335938 -11.492188 8.972656 -12.082031 8.515625 -12.46875 C 8.066406 -12.863281 7.578125 -13.125 7.046875 -13.25 C 6.515625 -13.382812 5.988281 -13.453125 5.46875 -13.453125 L 3.703125 -13.453125 L 3.703125 -1.515625 L 5.5 -1.515625 C 6.03125 -1.515625 6.5625 -1.597656 7.09375 -1.765625 C 7.632812 -1.941406 8.125 -2.25 8.5625 -2.6875 C 9.007812 -3.125 9.363281 -3.734375 9.625 -4.515625 C 9.894531 -5.304688 10.03125 -6.328125 10.03125 -7.578125 Z M 12.046875 -7.578125 C 12.046875 -6.003906 11.84375 -4.722656 11.4375 -3.734375 C 11.03125 -2.742188 10.488281 -1.976562 9.8125 -1.4375 C 9.144531 -0.894531 8.414062 -0.519531 7.625 -0.3125 C 6.832031 -0.101562 6.046875 0 5.265625 0 L 1.8125 0 L 1.8125 -15 L 5.03125 -15 C 5.90625 -15 6.757812 -14.898438 7.59375 -14.703125 C 8.425781 -14.515625 9.175781 -14.15625 9.84375 -13.625 C 10.519531 -13.101562 11.054688 -12.351562 11.453125 -11.375 C 11.847656 -10.40625 12.046875 -9.140625 12.046875 -7.578125 Z M 12.046875 -7.578125 "/></g></g></g><g fill="#e15c31" fill-opacity="1"><g transform="translate(204.054306, 361.42676)"><g><path d="M 4.625 -13.453125 L 4.625 -8.40625 L 10.1875 -8.40625 L 10.1875 -6.84375 L 4.625 -6.84375 L 4.625 -1.515625 L 11.453125 -1.515625 L 11.453125 0 L 2.734375 0 L 2.734375 -15 L 11.265625 -15 L 11.046875 -13.453125 Z M 4.625 -13.453125 "/></g></g></g><g fill="#e15c31" fill-opacity="1"><g transform="translate(215.740473, 361.42676)"><g><path d="M 11.71875 -10.796875 C 11.71875 -10.046875 11.554688 -9.390625 11.234375 -8.828125 C 10.910156 -8.273438 10.472656 -7.816406 9.921875 -7.453125 C 9.367188 -7.085938 8.742188 -6.820312 8.046875 -6.65625 L 12.5 0 L 10.234375 0 L 6.140625 -6.4375 L 4.109375 -6.4375 L 4.109375 0 L 2.21875 0 L 2.21875 -15 L 6.078125 -15 C 7.921875 -15 9.320312 -14.644531 10.28125 -13.9375 C 11.238281 -13.226562 11.71875 -12.179688 11.71875 -10.796875 Z M 9.6875 -10.796875 C 9.6875 -11.765625 9.410156 -12.457031 8.859375 -12.875 C 8.304688 -13.289062 7.445312 -13.5 6.28125 -13.5 L 4.109375 -13.5 L 4.109375 -7.921875 L 6.28125 -7.921875 C 7.363281 -7.921875 8.203125 -8.140625 8.796875 -8.578125 C 9.390625 -9.015625 9.6875 -9.753906 9.6875 -10.796875 Z M 9.6875 -10.796875 "/></g></g></g><g fill="#e15c31" fill-opacity="1"><g transform="translate(227.426639, 361.42676)"><g/></g></g><g fill="#e15c31" fill-opacity="1"><g transform="translate(239.112806, 361.42676)"><g><path d="M 7.5 -5.78125 L 7.5 0 L 5.578125 0 L 5.578125 -5.765625 L 0.515625 -15 L 2.609375 -15 L 6.578125 -7.484375 L 10.609375 -15 L 12.5625 -15 Z M 7.5 -5.78125 "/></g></g></g><g fill="#e15c31" fill-opacity="1"><g transform="translate(250.798973, 361.42676)"><g><path d="M 12.0625 -7.484375 C 12.0625 -5.972656 11.851562 -4.632812 11.4375 -3.46875 C 11.03125 -2.300781 10.414062 -1.390625 9.59375 -0.734375 C 8.78125 -0.078125 7.757812 0.25 6.53125 0.25 C 5.320312 0.25 4.304688 -0.0664062 3.484375 -0.703125 C 2.660156 -1.347656 2.039062 -2.25 1.625 -3.40625 C 1.21875 -4.5625 1.015625 -5.914062 1.015625 -7.46875 C 1.015625 -8.988281 1.21875 -10.332031 1.625 -11.5 C 2.039062 -12.664062 2.660156 -13.582031 3.484375 -14.25 C 4.304688 -14.914062 5.320312 -15.25 6.53125 -15.25 C 7.757812 -15.25 8.78125 -14.925781 9.59375 -14.28125 C 10.414062 -13.632812 11.03125 -12.726562 11.4375 -11.5625 C 11.851562 -10.394531 12.0625 -9.035156 12.0625 -7.484375 Z M 10.078125 -7.484375 C 10.078125 -9.484375 9.800781 -11.015625 9.25 -12.078125 C 8.707031 -13.140625 7.800781 -13.671875 6.53125 -13.671875 C 5.269531 -13.671875 4.363281 -13.132812 3.8125 -12.0625 C 3.269531 -11 3 -9.46875 3 -7.46875 C 3 -5.46875 3.28125 -3.945312 3.84375 -2.90625 C 4.414062 -1.863281 5.3125 -1.34375 6.53125 -1.34375 C 7.800781 -1.34375 8.707031 -1.863281 9.25 -2.90625 C 9.800781 -3.957031 10.078125 -5.484375 10.078125 -7.484375 Z M 10.078125 -7.484375 "/></g></g></g><g fill="#e15c31" fill-opacity="1"><g transform="translate(262.48514, 361.42676)"><g><path d="M 11.5 -15 L 11.5 -4.859375 C 11.5 -3.847656 11.289062 -2.957031 10.875 -2.1875 C 10.46875 -1.414062 9.890625 -0.816406 9.140625 -0.390625 C 8.398438 0.0351562 7.523438 0.25 6.515625 0.25 C 5.484375 0.25 4.597656 0.0351562 3.859375 -0.390625 C 3.117188 -0.828125 2.550781 -1.429688 2.15625 -2.203125 C 1.769531 -2.972656 1.578125 -3.859375 1.578125 -4.859375 L 1.578125 -15 L 3.453125 -15 L 3.453125 -4.796875 C 3.453125 -3.648438 3.71875 -2.796875 4.25 -2.234375 C 4.789062 -1.671875 5.546875 -1.390625 6.515625 -1.390625 C 7.492188 -1.390625 8.25 -1.671875 8.78125 -2.234375 C 9.320312 -2.796875 9.59375 -3.648438 9.59375 -4.796875 L 9.59375 -15 Z M 11.5 -15 "/></g></g></g></svg>